<svg width="309" height="45" viewBox="0 0 309 45" fill="none" xmlns="http://www.w3.org/2000/svg">
<path d="M0.253601 35.5H15.2302C22.4489 35.5 26.9255 31.7969 26.9255 25.8672V25.8203C26.9255 21.3906 23.527 18.0625 18.8161 17.7109V17.5703C22.5427 17.0781 25.3552 13.9141 25.3552 10.2109V10.1641C25.3552 4.96094 21.3474 1.67969 14.9724 1.67969H0.253601V35.5ZM13.1442 6.92969C16.4489 6.92969 18.3942 8.47656 18.3942 11.1719V11.2188C18.3942 14.1484 16.2614 15.8125 12.277 15.8125H7.33173V6.92969H13.1442ZM13.1208 20.6172C17.4567 20.6172 19.7067 22.2812 19.7067 25.375V25.4219C19.7067 28.5625 17.4802 30.2266 13.4255 30.2266H7.33173V20.6172H13.1208ZM33.7893 7.14062C35.8518 7.14062 37.4455 5.52344 37.4455 3.57812C37.4455 1.63281 35.8518 0.015625 33.7893 0.015625C31.7268 0.015625 30.133 1.63281 30.133 3.57812C30.133 5.52344 31.7268 7.14062 33.7893 7.14062ZM30.3674 35.5H37.2112V10.375H30.3674V35.5ZM53.4031 44.2188C60.95 44.2188 65.6609 40.3984 65.6609 34.7969V10.375H58.8172V14.6641H58.6765C57.3172 11.7344 54.575 9.85938 51.0359 9.85938C44.6844 9.85938 40.7469 14.6172 40.7469 22.6328V22.6562C40.7469 30.4609 44.6375 35.1484 50.9187 35.1484C54.5515 35.1484 57.364 33.4844 58.6765 30.8594H58.8172V34.7031C58.8172 37.5156 56.9422 39.3438 53.4031 39.3438C50.5437 39.3438 48.7156 38.2656 48.1765 37.0234L48.1062 36.8594H41.45L41.4734 37.0703C42.1297 41.1016 46.489 44.2188 53.4031 44.2188ZM53.2859 30.1328C49.864 30.1328 47.7078 27.3438 47.7078 22.8203V22.7969C47.7078 18.2969 49.8875 15.5312 53.2859 15.5312C56.614 15.5312 58.8406 18.3203 58.8406 22.7969V22.8203C58.8406 27.3203 56.6375 30.1328 53.2859 30.1328ZM86.8651 35.8984C90.1698 35.8984 92.8417 34.3281 94.2714 31.75H94.412V35.5H101.256V18.2734C101.256 13.2109 97.0604 9.85938 90.5682 9.85938C83.9354 9.85938 79.951 13.1875 79.576 17.8281L79.5526 18.1094H85.8104L85.8573 17.8984C86.1854 16.2812 87.7323 15.0859 90.287 15.0859C92.9589 15.0859 94.412 16.4688 94.412 18.6953V20.2422L88.201 20.6172C81.9667 21.0156 78.4276 23.6875 78.4276 28.2578V28.3047C78.4276 32.7344 81.826 35.8984 86.8651 35.8984ZM85.201 27.9531V27.9062C85.201 26.125 86.5839 25 89.2323 24.8359L94.412 24.5078V26.3125C94.412 28.9375 92.162 30.9062 89.0917 30.9062C86.7245 30.9062 85.201 29.8047 85.201 27.9531ZM105.541 35.5H112.385V21.0625C112.385 17.7812 114.33 15.5312 117.401 15.5312C120.471 15.5312 122.018 17.4062 122.018 20.6875V35.5H128.862V19.2812C128.862 13.3984 125.721 9.85938 120.19 9.85938C116.393 9.85938 113.815 11.6172 112.526 14.5H112.385V10.375H105.541V35.5ZM142.358 36.0156C145.991 36.0156 148.757 34.1875 150.093 31.2109H150.233V35.5H157.077V1.67969H150.233V14.7344H150.093C148.733 11.6875 145.921 9.85938 142.358 9.85938C136.03 9.85938 132.14 14.7344 132.14 22.9141V22.9375C132.14 31.0938 136.03 36.0156 142.358 36.0156ZM144.655 30.3438C141.233 30.3438 139.101 27.5078 139.101 22.9375V22.9141C139.101 18.3203 141.257 15.5312 144.655 15.5312C147.96 15.5312 150.257 18.3906 150.257 22.9141V22.9375C150.257 27.4844 147.983 30.3438 144.655 30.3438ZM185.758 36.0156C192.086 36.0156 196 31.0938 196 22.9375V22.9141C196 14.7344 192.086 9.85938 185.781 9.85938C182.195 9.85938 179.406 11.6875 178.023 14.7344H177.883V1.67969H171.039V35.5H177.883V31.2109H178.023C179.383 34.1875 182.148 36.0156 185.758 36.0156ZM183.484 30.3438C180.156 30.3438 177.883 27.4844 177.883 22.9375V22.9141C177.883 18.3906 180.18 15.5312 183.484 15.5312C186.883 15.5312 189.039 18.3203 189.039 22.9141V22.9375C189.039 27.5078 186.883 30.3438 183.484 30.3438ZM202.934 7.14062C204.997 7.14062 206.59 5.52344 206.59 3.57812C206.59 1.63281 204.997 0.015625 202.934 0.015625C200.872 0.015625 199.278 1.63281 199.278 3.57812C199.278 5.52344 200.872 7.14062 202.934 7.14062ZM199.512 35.5H206.356V10.375H199.512V35.5ZM222.548 44.2188C230.095 44.2188 234.806 40.3984 234.806 34.7969V10.375H227.962V14.6641H227.821C226.462 11.7344 223.72 9.85938 220.181 9.85938C213.829 9.85938 209.892 14.6172 209.892 22.6328V22.6562C209.892 30.4609 213.782 35.1484 220.064 35.1484C223.696 35.1484 226.509 33.4844 227.821 30.8594H227.962V34.7031C227.962 37.5156 226.087 39.3438 222.548 39.3438C219.689 39.3438 217.86 38.2656 217.321 37.0234L217.251 36.8594H210.595L210.618 37.0703C211.275 41.1016 215.634 44.2188 222.548 44.2188ZM222.431 30.1328C219.009 30.1328 216.853 27.3438 216.853 22.8203V22.7969C216.853 18.2969 219.032 15.5312 222.431 15.5312C225.759 15.5312 227.985 18.3203 227.985 22.7969V22.8203C227.985 27.3203 225.782 30.1328 222.431 30.1328ZM250.904 44.2188C258.451 44.2188 263.162 40.3984 263.162 34.7969V10.375H256.318V14.6641H256.177C254.818 11.7344 252.076 9.85938 248.537 9.85938C242.185 9.85938 238.248 14.6172 238.248 22.6328V22.6562C238.248 30.4609 242.138 35.1484 248.42 35.1484C252.052 35.1484 254.865 33.4844 256.177 30.8594H256.318V34.7031C256.318 37.5156 254.443 39.3438 250.904 39.3438C248.045 39.3438 246.216 38.2656 245.677 37.0234L245.607 36.8594H238.951L238.974 37.0703C239.631 41.1016 243.99 44.2188 250.904 44.2188ZM250.787 30.1328C247.365 30.1328 245.209 27.3438 245.209 22.8203V22.7969C245.209 18.2969 247.388 15.5312 250.787 15.5312C254.115 15.5312 256.341 18.3203 256.341 22.7969V22.8203C256.341 27.3203 254.138 30.1328 250.787 30.1328ZM278.955 36.0156C286.127 36.0156 289.596 31.7734 290.369 28.0703L290.44 27.8125H284.158L284.112 27.9531C283.619 29.3594 281.908 30.9062 279.096 30.9062C275.604 30.9062 273.424 28.5625 273.354 24.5547H290.651V22.4453C290.651 14.8516 286.033 9.85938 278.674 9.85938C271.315 9.85938 266.604 14.9688 266.604 22.9609V22.9844C266.604 31.0234 271.268 36.0156 278.955 36.0156ZM278.791 14.9688C281.627 14.9688 283.666 16.7734 284.088 20.2422H273.424C273.869 16.8438 275.979 14.9688 278.791 14.9688ZM294.046 35.5H300.889V21.4375C300.889 17.7812 302.858 15.7656 306.233 15.7656C307.218 15.7656 308.155 15.9062 308.718 16.1406V10.1172C308.202 9.97656 307.499 9.85938 306.749 9.85938C303.819 9.85938 301.78 11.6641 301.03 14.7578H300.889V10.375H294.046V35.5ZM312.37 35.8984C314.48 35.8984 316.167 34.2109 316.167 32.1016C316.167 29.9688 314.48 28.3047 312.37 28.3047C310.238 28.3047 308.574 29.9688 308.574 32.1016C308.574 34.2109 310.238 35.8984 312.37 35.8984Z" fill="url(#paint0_linear_2_2231)"/>
<defs>
<linearGradient id="paint0_linear_2_2231" x1="-2.59375" y1="18.5" x2="318.194" y2="18.5" gradientUnits="userSpaceOnUse">
<stop stop-color="#2CA2B4"/>
<stop offset="0.24" stop-color="#5598DE"/>
<stop offset="0.45" stop-color="#7F87FF"/>
<stop offset="0.76" stop-color="#F65AAD"/>
<stop offset="1" stop-color="#EC3D43"/>
</linearGradient>
</defs>
</svg>
