<svg width="335" height="95" viewBox="0 0 335 95" fill="none" xmlns="http://www.w3.org/2000/svg">
<path d="M0.422363 34.5H22.2896V28.6641H7.50049V0.679688H0.422363V34.5ZM36.9112 35.0156C44.5049 35.0156 49.3565 30.1406 49.3565 21.9375V21.8906C49.3565 13.7578 44.4112 8.85938 36.8877 8.85938C29.3877 8.85938 24.4659 13.8047 24.4659 21.8906V21.9375C24.4659 30.1172 29.2706 35.0156 36.9112 35.0156ZM36.9346 29.6484C33.5596 29.6484 31.4268 26.8594 31.4268 21.9375V21.8906C31.4268 17.0391 33.5831 14.2266 36.8877 14.2266C40.2159 14.2266 42.3956 17.0391 42.3956 21.8906V21.9375C42.3956 26.8359 40.2627 29.6484 36.9346 29.6484ZM58.4937 34.5H66.2047L74.8297 9.375H67.6812L62.5016 28.4531H62.3609L57.1109 9.375H49.7984L58.4937 34.5ZM87.6232 35.0156C94.7951 35.0156 98.2638 30.7734 99.0372 27.0703L99.1076 26.8125H92.8263L92.7794 26.9531C92.2872 28.3594 90.5763 29.9062 87.7638 29.9062C84.2716 29.9062 82.0919 27.5625 82.0216 23.5547H99.3185V21.4453C99.3185 13.8516 94.7013 8.85938 87.3419 8.85938C79.9826 8.85938 75.2716 13.9688 75.2716 21.9609V21.9844C75.2716 30.0234 79.9357 35.0156 87.6232 35.0156ZM87.4591 13.9688C90.2951 13.9688 92.3341 15.7734 92.756 19.2422H82.0919C82.5372 15.8438 84.6466 13.9688 87.4591 13.9688ZM122.07 35.0156C123.499 35.0156 124.601 34.875 125.374 34.7578V29.7422C124.952 29.7891 124.507 29.8594 123.898 29.8594C121.835 29.8594 120.78 29.0625 120.78 26.7188V14.5312H125.374V9.375H120.78V3.23438H113.866V9.375H110.374V14.5312H113.866V27.4688C113.866 32.8594 116.491 35.0156 122.07 35.0156ZM129.168 34.5H136.011V20.1094C136.011 16.8281 137.957 14.5312 140.98 14.5312C144.097 14.5312 145.832 16.6172 145.832 20.1328V34.5H152.676V18.7266C152.676 12.6562 149.301 8.85938 143.863 8.85938C140.09 8.85938 137.441 10.5938 136.152 13.7109H136.011V0.679688H129.168V34.5ZM168.375 35.0156C175.547 35.0156 179.016 30.7734 179.789 27.0703L179.86 26.8125H173.578L173.532 26.9531C173.039 28.3594 171.328 29.9062 168.516 29.9062C165.024 29.9062 162.844 27.5625 162.774 23.5547H180.071V21.4453C180.071 13.8516 175.453 8.85938 168.094 8.85938C160.735 8.85938 156.024 13.9688 156.024 21.9609V21.9844C156.024 30.0234 160.688 35.0156 168.375 35.0156ZM168.211 13.9688C171.047 13.9688 173.086 15.7734 173.508 19.2422H162.844C163.289 15.8438 165.399 13.9688 168.211 13.9688ZM192.837 42.7031H199.681V30.2109H199.822C201.181 33.1875 204.017 35.0156 207.603 35.0156C213.884 35.0156 217.775 30.0938 217.775 21.9375V21.9141C217.775 13.7344 213.884 8.85938 207.509 8.85938C203.947 8.85938 201.204 10.7109 199.845 13.7578H199.681V9.375H192.837V42.7031ZM205.259 29.3438C201.931 29.3438 199.658 26.4844 199.658 21.9609V21.9375C199.658 17.3906 201.931 14.5312 205.259 14.5312C208.658 14.5312 210.814 17.3203 210.814 21.9141V21.9375C210.814 26.5078 208.658 29.3438 205.259 29.3438ZM232.725 35.0156C240.318 35.0156 245.17 30.1406 245.17 21.9375V21.8906C245.17 13.7578 240.225 8.85938 232.701 8.85938C225.201 8.85938 220.279 13.8047 220.279 21.8906V21.9375C220.279 30.1172 225.084 35.0156 232.725 35.0156ZM232.748 29.6484C229.373 29.6484 227.24 26.8594 227.24 21.9375V21.8906C227.24 17.0391 229.396 14.2266 232.701 14.2266C236.029 14.2266 238.209 17.0391 238.209 21.8906V21.9375C238.209 26.8359 236.076 29.6484 232.748 29.6484ZM253.229 34.5H260.424L264.948 16.7344H265.088L269.635 34.5H276.924L283.581 9.375H276.831L273.01 28.0078H272.87L268.393 9.375H261.831L257.377 28.0078H257.237L253.44 9.375H246.549L253.229 34.5ZM297.171 35.0156C304.343 35.0156 307.812 30.7734 308.585 27.0703L308.655 26.8125H302.374L302.327 26.9531C301.835 28.3594 300.124 29.9062 297.312 29.9062C293.819 29.9062 291.64 27.5625 291.569 23.5547H308.866V21.4453C308.866 13.8516 304.249 8.85938 296.89 8.85938C289.53 8.85938 284.819 13.9688 284.819 21.9609V21.9844C284.819 30.0234 289.483 35.0156 297.171 35.0156ZM297.007 13.9688C299.843 13.9688 301.882 15.7734 302.304 19.2422H291.64C292.085 15.8438 294.194 13.9688 297.007 13.9688ZM312.261 34.5H319.105V20.4375C319.105 16.7812 321.074 14.7656 324.449 14.7656C325.433 14.7656 326.371 14.9062 326.933 15.1406V9.11719C326.418 8.97656 325.714 8.85938 324.964 8.85938C322.035 8.85938 319.996 10.6641 319.246 13.7578H319.105V9.375H312.261V34.5ZM330.586 34.8984C332.695 34.8984 334.383 33.2109 334.383 31.1016C334.383 28.9688 332.695 27.3047 330.586 27.3047C328.453 27.3047 326.789 28.9688 326.789 31.1016C326.789 33.2109 328.453 34.8984 330.586 34.8984ZM12.6802 86.5H34.5474V80.6641H19.7583V52.6797H12.6802V86.5ZM49.169 87.0156C56.7627 87.0156 61.6143 82.1406 61.6143 73.9375V73.8906C61.6143 65.7578 56.669 60.8594 49.1456 60.8594C41.6456 60.8594 36.7237 65.8047 36.7237 73.8906V73.9375C36.7237 82.1172 41.5284 87.0156 49.169 87.0156ZM49.1924 81.6484C45.8174 81.6484 43.6846 78.8594 43.6846 73.9375V73.8906C43.6846 69.0391 45.8409 66.2266 49.1456 66.2266C52.4737 66.2266 54.6534 69.0391 54.6534 73.8906V73.9375C54.6534 78.8359 52.5206 81.6484 49.1924 81.6484ZM70.7516 86.5H78.4625L87.0875 61.375H79.9391L74.7594 80.4531H74.6187L69.3687 61.375H62.0562L70.7516 86.5ZM99.881 87.0156C107.053 87.0156 110.522 82.7734 111.295 79.0703L111.365 78.8125H105.084L105.037 78.9531C104.545 80.3594 102.834 81.9062 100.022 81.9062C96.5294 81.9062 94.3497 79.5625 94.2794 75.5547H111.576V73.4453C111.576 65.8516 106.959 60.8594 99.5997 60.8594C92.2404 60.8594 87.5294 65.9688 87.5294 73.9609V73.9844C87.5294 82.0234 92.1935 87.0156 99.881 87.0156ZM99.7169 65.9688C102.553 65.9688 104.592 67.7734 105.014 71.2422H94.3497C94.7951 67.8438 96.9044 65.9688 99.7169 65.9688ZM134.327 87.0156C135.757 87.0156 136.859 86.875 137.632 86.7578V81.7422C137.21 81.7891 136.765 81.8594 136.155 81.8594C134.093 81.8594 133.038 81.0625 133.038 78.7188V66.5312H137.632V61.375H133.038V55.2344H126.124V61.375H122.632V66.5312H126.124V79.4688C126.124 84.8594 128.749 87.0156 134.327 87.0156ZM141.426 86.5H148.269V72.1094C148.269 68.8281 150.215 66.5312 153.238 66.5312C156.355 66.5312 158.09 68.6172 158.09 72.1328V86.5H164.933V70.7266C164.933 64.6562 161.558 60.8594 156.121 60.8594C152.347 60.8594 149.699 62.5938 148.41 65.7109H148.269V52.6797H141.426V86.5ZM180.633 87.0156C187.805 87.0156 191.274 82.7734 192.047 79.0703L192.117 78.8125H185.836L185.789 78.9531C185.297 80.3594 183.586 81.9062 180.774 81.9062C177.282 81.9062 175.102 79.5625 175.032 75.5547H192.328V73.4453C192.328 65.8516 187.711 60.8594 180.352 60.8594C172.992 60.8594 168.282 65.9688 168.282 73.9609V73.9844C168.282 82.0234 172.946 87.0156 180.633 87.0156ZM180.469 65.9688C183.305 65.9688 185.344 67.7734 185.766 71.2422H175.102C175.547 67.8438 177.657 65.9688 180.469 65.9688ZM205.095 94.7031H211.939V82.2109H212.079C213.439 85.1875 216.275 87.0156 219.861 87.0156C226.142 87.0156 230.033 82.0938 230.033 73.9375V73.9141C230.033 65.7344 226.142 60.8594 219.767 60.8594C216.204 60.8594 213.462 62.7109 212.103 65.7578H211.939V61.375H205.095V94.7031ZM217.517 81.3438C214.189 81.3438 211.915 78.4844 211.915 73.9609V73.9375C211.915 69.3906 214.189 66.5312 217.517 66.5312C220.915 66.5312 223.072 69.3203 223.072 73.9141V73.9375C223.072 78.5078 220.915 81.3438 217.517 81.3438ZM233.451 86.5H240.295V72.4375C240.295 68.7812 242.264 66.7656 245.639 66.7656C246.623 66.7656 247.56 66.9062 248.123 67.1406V61.1172C247.607 60.9766 246.904 60.8594 246.154 60.8594C243.225 60.8594 241.185 62.6641 240.435 65.7578H240.295V61.375H233.451V86.5ZM254.354 58.1406C256.416 58.1406 258.01 56.5234 258.01 54.5781C258.01 52.6328 256.416 51.0156 254.354 51.0156C252.291 51.0156 250.698 52.6328 250.698 54.5781C250.698 56.5234 252.291 58.1406 254.354 58.1406ZM250.932 86.5H257.776V61.375H250.932V86.5ZM273.71 87.0156C280.413 87.0156 284.749 82.8438 285.077 77.3594V77.2188H278.702L278.679 77.4297C278.21 79.9609 276.499 81.6484 273.757 81.6484C270.382 81.6484 268.272 78.8594 268.272 73.9375V73.9141C268.272 69.1094 270.382 66.2266 273.733 66.2266C276.569 66.2266 278.233 68.0547 278.655 70.4453L278.702 70.6562H285.054V70.4922C284.796 65.0547 280.46 60.8594 273.64 60.8594C266.116 60.8594 261.312 65.8516 261.312 73.8906V73.9141C261.312 82.0234 266.046 87.0156 273.71 87.0156ZM299.675 87.0156C306.847 87.0156 310.316 82.7734 311.089 79.0703L311.16 78.8125H304.878L304.832 78.9531C304.339 80.3594 302.628 81.9062 299.816 81.9062C296.324 81.9062 294.144 79.5625 294.074 75.5547H311.371V73.4453C311.371 65.8516 306.753 60.8594 299.394 60.8594C292.035 60.8594 287.324 65.9688 287.324 73.9609V73.9844C287.324 82.0234 291.988 87.0156 299.675 87.0156ZM299.511 65.9688C302.347 65.9688 304.386 67.7734 304.808 71.2422H294.144C294.589 67.8438 296.699 65.9688 299.511 65.9688ZM318.328 86.8984C320.438 86.8984 322.125 85.2109 322.125 83.1016C322.125 80.9688 320.438 79.3047 318.328 79.3047C316.195 79.3047 314.531 80.9688 314.531 83.1016C314.531 85.2109 316.195 86.8984 318.328 86.8984Z" fill="url(#paint0_linear_2_2265)"/>
<defs>
<linearGradient id="paint0_linear_2_2265" x1="-2.39062" y1="43.5" x2="336.376" y2="43.5" gradientUnits="userSpaceOnUse">
<stop stop-color="#1E3791"/>
<stop offset="0.4" stop-color="#2948B1"/>
<stop offset="0.55" stop-color="#3153C6"/>
<stop offset="0.6" stop-color="#385FDA"/>
</linearGradient>
</defs>
</svg>
