<svg width="257" height="43" viewBox="0 0 257 43" fill="none" xmlns="http://www.w3.org/2000/svg">
<path d="M0.711014 34H7.78914V23.3359H14.3048C21.4298 23.3359 26.1876 18.7422 26.1876 11.7812V11.7344C26.1876 4.77344 21.4298 0.179688 14.3048 0.179688H0.711014V34ZM12.5704 5.78125C16.6251 5.78125 19.0157 7.91406 19.0157 11.7578V11.8047C19.0157 15.6484 16.6251 17.8047 12.5704 17.8047H7.78914V5.78125H12.5704ZM29.653 34H36.4967V19.9375C36.4967 16.2812 38.4655 14.2656 41.8405 14.2656C42.8248 14.2656 43.7623 14.4062 44.3248 14.6406V8.61719C43.8092 8.47656 43.1061 8.35938 42.3561 8.35938C39.4264 8.35938 37.3873 10.1641 36.6373 13.2578H36.4967V8.875H29.653V34ZM57.6808 34.5156C65.2746 34.5156 70.1261 29.6406 70.1261 21.4375V21.3906C70.1261 13.2578 65.1808 8.35938 57.6574 8.35938C50.1574 8.35938 45.2355 13.3047 45.2355 21.3906V21.4375C45.2355 29.6172 50.0402 34.5156 57.6808 34.5156ZM57.7043 29.1484C54.3293 29.1484 52.1965 26.3594 52.1965 21.4375V21.3906C52.1965 16.5391 54.3527 13.7266 57.6574 13.7266C60.9855 13.7266 63.1652 16.5391 63.1652 21.3906V21.4375C63.1652 26.3359 61.0324 29.1484 57.7043 29.1484ZM76.3806 34.3984C78.49 34.3984 80.1775 32.7109 80.1775 30.6016C80.1775 28.4688 78.49 26.8047 76.3806 26.8047C74.2478 26.8047 72.5837 28.4688 72.5837 30.6016C72.5837 32.7109 74.2478 34.3984 76.3806 34.3984ZM91.3973 34H106.374C113.593 34 118.069 30.2969 118.069 24.3672V24.3203C118.069 19.8906 114.671 16.5625 109.96 16.2109V16.0703C113.686 15.5781 116.499 12.4141 116.499 8.71094V8.66406C116.499 3.46094 112.491 0.179688 106.116 0.179688H91.3973V34ZM104.288 5.42969C107.593 5.42969 109.538 6.97656 109.538 9.67188V9.71875C109.538 12.6484 107.405 14.3125 103.421 14.3125H98.4754V5.42969H104.288ZM104.264 19.1172C108.6 19.1172 110.85 20.7812 110.85 23.875V23.9219C110.85 27.0625 108.624 28.7266 104.569 28.7266H98.4754V19.1172H104.264ZM132.808 34.5156C139.98 34.5156 143.449 30.2734 144.222 26.5703L144.292 26.3125H138.011L137.964 26.4531C137.472 27.8594 135.761 29.4062 132.949 29.4062C129.456 29.4062 127.277 27.0625 127.206 23.0547H144.503V20.9453C144.503 13.3516 139.886 8.35938 132.527 8.35938C125.167 8.35938 120.456 13.4688 120.456 21.4609V21.4844C120.456 29.5234 125.12 34.5156 132.808 34.5156ZM132.644 13.4688C135.48 13.4688 137.519 15.2734 137.941 18.7422H127.277C127.722 15.3438 129.831 13.4688 132.644 13.4688ZM150.898 42.2734C156.476 42.2734 159.851 40.375 161.82 34.4453L170.445 8.875H163.226L157.906 28.5156H157.719L152.422 8.875H144.898L153.781 34L153.476 34.8203C152.867 36.5312 151.742 37.1172 149.703 37.1172C148.695 37.1172 147.898 36.9766 147.406 36.8828V41.9688C148.203 42.1094 149.562 42.2734 150.898 42.2734ZM183.332 34.5156C190.926 34.5156 195.778 29.6406 195.778 21.4375V21.3906C195.778 13.2578 190.832 8.35938 183.309 8.35938C175.809 8.35938 170.887 13.3047 170.887 21.3906V21.4375C170.887 29.6172 175.692 34.5156 183.332 34.5156ZM183.356 29.1484C179.981 29.1484 177.848 26.3594 177.848 21.4375V21.3906C177.848 16.5391 180.004 13.7266 183.309 13.7266C186.637 13.7266 188.817 16.5391 188.817 21.3906V21.4375C188.817 26.3359 186.684 29.1484 183.356 29.1484ZM199.173 34H206.017V19.5625C206.017 16.2812 207.962 14.0312 211.032 14.0312C214.103 14.0312 215.649 15.9062 215.649 19.1875V34H222.493V17.7812C222.493 11.8984 219.353 8.35938 213.821 8.35938C210.024 8.35938 207.446 10.1172 206.157 13H206.017V8.875H199.173V34ZM235.99 34.5156C239.623 34.5156 242.388 32.6875 243.724 29.7109H243.865V34H250.709V0.179688H243.865V13.2344H243.724C242.365 10.1875 239.552 8.35938 235.99 8.35938C229.662 8.35938 225.771 13.2344 225.771 21.4141V21.4375C225.771 29.5938 229.662 34.5156 235.99 34.5156ZM238.287 28.8438C234.865 28.8438 232.732 26.0078 232.732 21.4375V21.4141C232.732 16.8203 234.888 14.0312 238.287 14.0312C241.591 14.0312 243.888 16.8906 243.888 21.4141V21.4375C243.888 25.9844 241.615 28.8438 238.287 28.8438ZM258.697 34.3984C260.807 34.3984 262.494 32.7109 262.494 30.6016C262.494 28.4688 260.807 26.8047 258.697 26.8047C256.565 26.8047 254.9 28.4688 254.9 30.6016C254.9 32.7109 256.565 34.3984 258.697 34.3984Z" fill="url(#paint0_linear_2_2250)"/>
<defs>
<linearGradient id="paint0_linear_2_2250" x1="131.192" y1="-12" x2="131.192" y2="46" gradientUnits="userSpaceOnUse">
<stop stop-color="#FFB6FF"/>
<stop offset="1" stop-color="#B344FF"/>
</linearGradient>
</defs>
</svg>
